<svg width="27" height="126" viewBox="0 0 27 126" fill="none" xmlns="http://www.w3.org/2000/svg">
<mask id="path-1-outside-1_1944_373" maskUnits="userSpaceOnUse" x="4" y="24" width="23" height="35" fill="black">
<rect fill="white" x="4" y="24" width="23" height="35"/>
<path d="M23.2188 35.5625H22.0938C21.8854 34.6667 21.5833 33.75 21.1875 32.8125C20.7917 31.8542 20.1562 30.8438 19.2812 29.7812C18.5521 28.8854 17.7083 28.2292 16.75 27.8125C15.7917 27.375 14.875 27.1562 14 27.1562C13.2917 27.1562 12.6771 27.2708 12.1562 27.5C11.6354 27.7083 11.1979 28 10.8438 28.375C10.4896 28.7292 10.2188 29.1458 10.0312 29.625C9.86458 30.1042 9.78125 30.6042 9.78125 31.125C9.78125 31.9375 9.95833 32.6771 10.3125 33.3438C10.6875 34.0104 11.2083 34.6458 11.875 35.25C12.5625 35.8542 13.3854 36.4583 14.3438 37.0625C15.3021 37.6667 16.375 38.3125 17.5625 39C18.5417 39.5625 19.5 40.1771 20.4375 40.8438C21.375 41.5104 22.1979 42.2604 22.9062 43.0938C23.6354 43.9062 24.2188 44.8125 24.6562 45.8125C25.0938 46.7917 25.3125 47.8958 25.3125 49.125C25.3125 50.0417 25.125 51.0104 24.75 52.0312C24.3958 53.0521 23.8229 54 23.0312 54.875C22.2396 55.7292 21.2292 56.4375 20 57C18.7708 57.5833 17.3021 57.875 15.5938 57.875C14.8021 57.875 14.0625 57.7917 13.375 57.625C12.7083 57.4583 12.0833 57.2812 11.5 57.0938C10.9167 56.9062 10.375 56.7292 9.875 56.5625C9.39583 56.3958 8.94792 56.3125 8.53125 56.3125C8.15625 56.3125 7.83333 56.375 7.5625 56.5C7.3125 56.6042 7.09375 56.7396 6.90625 56.9062C6.73958 57.0521 6.59375 57.2083 6.46875 57.375C6.36458 57.5625 6.27083 57.7292 6.1875 57.875H5.09375V47.5H6.1875C6.5 48.8958 6.91667 50.0833 7.4375 51.0625C7.95833 52.0208 8.52083 52.8125 9.125 53.4375C9.72917 54.0625 10.3333 54.5521 10.9375 54.9062C11.5625 55.2396 12.1354 55.4792 12.6562 55.625C13.1979 55.7708 13.6562 55.8646 14.0312 55.9062C14.4271 55.9271 14.6771 55.9375 14.7812 55.9375C15.5312 55.9375 16.2604 55.8438 16.9688 55.6562C17.6979 55.4479 18.3333 55.1458 18.875 54.75C19.4167 54.3542 19.8542 53.8542 20.1875 53.25C20.5208 52.625 20.6875 51.8854 20.6875 51.0312C20.6875 50.3229 20.5208 49.6562 20.1875 49.0312C19.875 48.4062 19.4167 47.7917 18.8125 47.1875C18.2292 46.5625 17.5104 45.9479 16.6562 45.3438C15.8021 44.7396 14.8333 44.1146 13.75 43.4688C12.7083 42.8646 11.6771 42.2396 10.6562 41.5938C9.65625 40.9479 8.75 40.2396 7.9375 39.4688C7.125 38.6771 6.46875 37.8021 5.96875 36.8438C5.46875 35.8646 5.21875 34.7396 5.21875 33.4688C5.21875 32.4271 5.39583 31.4271 5.75 30.4688C6.125 29.4896 6.66667 28.6354 7.375 27.9062C8.10417 27.1562 9 26.5625 10.0625 26.125C11.1458 25.6875 12.3958 25.4688 13.8125 25.4688C14.6458 25.4688 15.3854 25.5417 16.0312 25.6875C16.6771 25.8333 17.25 26 17.75 26.1875C18.25 26.3542 18.6979 26.5104 19.0938 26.6562C19.4896 26.8021 19.8646 26.875 20.2188 26.875C20.6979 26.875 21.0625 26.75 21.3125 26.5C21.5625 26.25 21.8021 25.9062 22.0312 25.4688H23.2188V35.5625Z"/>
</mask>
<path d="M23.2188 35.5625H22.0938C21.8854 34.6667 21.5833 33.75 21.1875 32.8125C20.7917 31.8542 20.1562 30.8438 19.2812 29.7812C18.5521 28.8854 17.7083 28.2292 16.75 27.8125C15.7917 27.375 14.875 27.1562 14 27.1562C13.2917 27.1562 12.6771 27.2708 12.1562 27.5C11.6354 27.7083 11.1979 28 10.8438 28.375C10.4896 28.7292 10.2188 29.1458 10.0312 29.625C9.86458 30.1042 9.78125 30.6042 9.78125 31.125C9.78125 31.9375 9.95833 32.6771 10.3125 33.3438C10.6875 34.0104 11.2083 34.6458 11.875 35.25C12.5625 35.8542 13.3854 36.4583 14.3438 37.0625C15.3021 37.6667 16.375 38.3125 17.5625 39C18.5417 39.5625 19.5 40.1771 20.4375 40.8438C21.375 41.5104 22.1979 42.2604 22.9062 43.0938C23.6354 43.9062 24.2188 44.8125 24.6562 45.8125C25.0938 46.7917 25.3125 47.8958 25.3125 49.125C25.3125 50.0417 25.125 51.0104 24.75 52.0312C24.3958 53.0521 23.8229 54 23.0312 54.875C22.2396 55.7292 21.2292 56.4375 20 57C18.7708 57.5833 17.3021 57.875 15.5938 57.875C14.8021 57.875 14.0625 57.7917 13.375 57.625C12.7083 57.4583 12.0833 57.2812 11.5 57.0938C10.9167 56.9062 10.375 56.7292 9.875 56.5625C9.39583 56.3958 8.94792 56.3125 8.53125 56.3125C8.15625 56.3125 7.83333 56.375 7.5625 56.5C7.3125 56.6042 7.09375 56.7396 6.90625 56.9062C6.73958 57.0521 6.59375 57.2083 6.46875 57.375C6.36458 57.5625 6.27083 57.7292 6.1875 57.875H5.09375V47.5H6.1875C6.5 48.8958 6.91667 50.0833 7.4375 51.0625C7.95833 52.0208 8.52083 52.8125 9.125 53.4375C9.72917 54.0625 10.3333 54.5521 10.9375 54.9062C11.5625 55.2396 12.1354 55.4792 12.6562 55.625C13.1979 55.7708 13.6562 55.8646 14.0312 55.9062C14.4271 55.9271 14.6771 55.9375 14.7812 55.9375C15.5312 55.9375 16.2604 55.8438 16.9688 55.6562C17.6979 55.4479 18.3333 55.1458 18.875 54.75C19.4167 54.3542 19.8542 53.8542 20.1875 53.25C20.5208 52.625 20.6875 51.8854 20.6875 51.0312C20.6875 50.3229 20.5208 49.6562 20.1875 49.0312C19.875 48.4062 19.4167 47.7917 18.8125 47.1875C18.2292 46.5625 17.5104 45.9479 16.6562 45.3438C15.8021 44.7396 14.8333 44.1146 13.75 43.4688C12.7083 42.8646 11.6771 42.2396 10.6562 41.5938C9.65625 40.9479 8.75 40.2396 7.9375 39.4688C7.125 38.6771 6.46875 37.8021 5.96875 36.8438C5.46875 35.8646 5.21875 34.7396 5.21875 33.4688C5.21875 32.4271 5.39583 31.4271 5.75 30.4688C6.125 29.4896 6.66667 28.6354 7.375 27.9062C8.10417 27.1562 9 26.5625 10.0625 26.125C11.1458 25.6875 12.3958 25.4688 13.8125 25.4688C14.6458 25.4688 15.3854 25.5417 16.0312 25.6875C16.6771 25.8333 17.25 26 17.75 26.1875C18.25 26.3542 18.6979 26.5104 19.0938 26.6562C19.4896 26.8021 19.8646 26.875 20.2188 26.875C20.6979 26.875 21.0625 26.75 21.3125 26.5C21.5625 26.25 21.8021 25.9062 22.0312 25.4688H23.2188V35.5625Z" fill="black"/>
<path d="M23.2188 35.5625V36.5625H24.2188V35.5625H23.2188ZM22.0938 35.5625L21.1197 35.789L21.2996 36.5625H22.0938V35.5625ZM21.1875 32.8125L20.2632 33.1943L20.2663 33.2015L21.1875 32.8125ZM19.2812 29.7812L18.5057 30.4125L18.5093 30.417L19.2812 29.7812ZM16.75 27.8125L16.3347 28.7222L16.343 28.726L16.3513 28.7296L16.75 27.8125ZM12.1562 27.5L12.5276 28.4285L12.5434 28.4222L12.559 28.4153L12.1562 27.5ZM10.8438 28.375L11.5509 29.0821L11.561 29.072L11.5708 29.0616L10.8438 28.375ZM10.0312 29.625L9.10001 29.2606L9.09304 29.2784L9.08675 29.2965L10.0312 29.625ZM10.3125 33.3438L9.42938 33.8129L9.43503 33.8235L9.44092 33.834L10.3125 33.3438ZM11.875 35.25L11.2035 35.991L11.2091 35.9961L11.2149 36.0012L11.875 35.25ZM17.5625 39L17.0615 39.8654L17.0644 39.8671L17.5625 39ZM20.4375 40.8438L19.858 41.6587L20.4375 40.8438ZM22.9062 43.0938L22.1443 43.7414L22.153 43.7516L22.162 43.7617L22.9062 43.0938ZM24.6562 45.8125L23.7401 46.2133L23.7432 46.2204L24.6562 45.8125ZM24.75 52.0312L23.8113 51.6864L23.8082 51.6949L23.8052 51.7035L24.75 52.0312ZM23.0312 54.875L23.7647 55.5548L23.7728 55.5459L23.0312 54.875ZM20 57L19.5838 56.0906L19.5713 56.0966L20 57ZM13.375 57.625L13.1325 58.5952L13.1394 58.5969L13.375 57.625ZM9.875 56.5625L9.54645 57.5071L9.55877 57.5112L9.875 56.5625ZM7.5625 56.5L7.94712 57.4231L7.96448 57.4158L7.98156 57.408L7.5625 56.5ZM6.90625 56.9062L7.56477 57.6588L7.57061 57.6537L6.90625 56.9062ZM6.46875 57.375L5.66875 56.775L5.62777 56.8296L5.59459 56.8894L6.46875 57.375ZM6.1875 57.875V58.875H6.76782L7.05574 58.3711L6.1875 57.875ZM5.09375 57.875H4.09375V58.875H5.09375V57.875ZM5.09375 47.5V46.5H4.09375V47.5H5.09375ZM6.1875 47.5L7.16334 47.2815L6.98837 46.5H6.1875V47.5ZM7.4375 51.0625L6.55459 51.5321L6.55888 51.54L7.4375 51.0625ZM10.9375 54.9062L10.4318 55.7689L10.4491 55.7791L10.4669 55.7886L10.9375 54.9062ZM12.6562 55.625L12.3866 56.588L12.3963 56.5906L12.6562 55.625ZM14.0312 55.9062L13.9208 56.9001L13.9497 56.9033L13.9787 56.9049L14.0312 55.9062ZM16.9688 55.6562L17.2246 56.623L17.2341 56.6205L17.2435 56.6178L16.9688 55.6562ZM18.875 54.75L18.285 53.9426L18.875 54.75ZM20.1875 53.25L21.0631 53.7331L21.0665 53.7269L21.0699 53.7206L20.1875 53.25ZM20.1875 49.0312L19.2931 49.4785L19.299 49.4902L19.3051 49.5018L20.1875 49.0312ZM18.8125 47.1875L18.0814 47.8698L18.0932 47.8824L18.1054 47.8946L18.8125 47.1875ZM13.75 43.4688L14.2621 42.6097L14.2517 42.6037L13.75 43.4688ZM10.6562 41.5938L10.1137 42.4338L10.1216 42.4388L10.6562 41.5938ZM7.9375 39.4688L7.23957 40.185L7.24924 40.1942L7.9375 39.4688ZM5.96875 36.8438L5.07811 37.2985L5.08217 37.3063L5.96875 36.8438ZM5.75 30.4688L4.81608 30.1111L4.81201 30.1221L5.75 30.4688ZM7.375 27.9062L6.65801 27.2092L6.65772 27.2095L7.375 27.9062ZM10.0625 26.125L9.68803 25.1977L9.68175 25.2003L10.0625 26.125ZM17.75 26.1875L17.3989 27.1238L17.4162 27.1303L17.4338 27.1362L17.75 26.1875ZM22.0312 25.4688V24.4688H21.4262L21.1454 25.0047L22.0312 25.4688ZM23.2188 25.4688H24.2188V24.4688H23.2188V25.4688ZM23.2188 34.5625H22.0938V36.5625H23.2188V34.5625ZM23.0678 35.336C22.8452 34.3791 22.5245 33.4081 22.1087 32.4235L20.2663 33.2015C20.6422 34.0919 20.9256 34.9542 21.1197 35.789L23.0678 35.336ZM22.1118 32.4307C21.668 31.3563 20.972 30.2612 20.0532 29.1455L18.5093 30.417C19.3405 31.4263 19.9154 32.3521 20.2632 33.1943L22.1118 32.4307ZM20.0568 29.15C19.2375 28.1434 18.2687 27.3824 17.1487 26.8954L16.3513 28.7296C17.148 29.076 17.8667 29.6274 18.5057 30.4125L20.0568 29.15ZM17.1653 26.9028C16.1027 26.4177 15.0445 26.1562 14 26.1562V28.1562C14.7055 28.1562 15.4806 28.3323 16.3347 28.7222L17.1653 26.9028ZM14 26.1562C13.1859 26.1562 12.4283 26.2878 11.7535 26.5847L12.559 28.4153C12.9259 28.2539 13.3974 28.1562 14 28.1562V26.1562ZM11.7849 26.5715C11.1413 26.8289 10.579 27.199 10.1167 27.6884L11.5708 29.0616C11.8169 28.801 12.1295 28.5877 12.5276 28.4285L11.7849 26.5715ZM10.1366 27.6679C9.68223 28.1223 9.33637 28.6566 9.10001 29.2606L10.9625 29.9894C11.1011 29.6351 11.2969 29.336 11.5509 29.0821L10.1366 27.6679ZM9.08675 29.2965C8.88237 29.8841 8.78125 30.4953 8.78125 31.125H10.7812C10.7812 30.713 10.8468 30.3242 10.9757 29.9535L9.08675 29.2965ZM8.78125 31.125C8.78125 32.0883 8.99267 32.9909 9.42938 33.8129L11.1956 32.8746C10.924 32.3633 10.7812 31.7867 10.7812 31.125H8.78125ZM9.44092 33.834C9.87704 34.6093 10.4708 35.327 11.2035 35.991L12.5465 34.509C11.9459 33.9647 11.498 33.4115 11.1841 32.8535L9.44092 33.834ZM11.2149 36.0012C11.9501 36.6473 12.8175 37.2824 13.8104 37.9084L14.8771 36.2166C13.9534 35.6343 13.1749 35.0611 12.5351 34.4988L11.2149 36.0012ZM13.8104 37.9084C14.7813 38.5205 15.8653 39.1729 17.0615 39.8654L18.0635 38.1346C16.8847 37.4521 15.8228 36.8128 14.8771 36.2166L13.8104 37.9084ZM17.0644 39.8671C18.0151 40.4132 18.9463 41.0104 19.858 41.6587L21.017 40.0288C20.0537 39.3438 19.0683 38.7118 18.0606 38.1329L17.0644 39.8671ZM19.858 41.6587C20.7315 42.2799 21.4923 42.9744 22.1443 43.7414L23.6682 42.4461C22.9035 41.5465 22.0185 40.741 21.017 40.0288L19.858 41.6587ZM22.162 43.7617C22.82 44.4949 23.3453 45.311 23.7401 46.2133L25.5724 45.4117C25.0922 44.314 24.4508 43.3176 23.6505 42.4258L22.162 43.7617ZM23.7432 46.2204C24.1156 47.0538 24.3125 48.016 24.3125 49.125H26.3125C26.3125 47.7757 26.0719 46.5295 25.5693 45.4046L23.7432 46.2204ZM24.3125 49.125C24.3125 49.9044 24.1531 50.7559 23.8113 51.6864L25.6887 52.3761C26.0969 51.2649 26.3125 50.179 26.3125 49.125H24.3125ZM23.8052 51.7035C23.499 52.5862 22.9996 53.4194 22.2897 54.2041L23.7728 55.5459C24.6462 54.5806 25.2927 53.518 25.6948 52.359L23.8052 51.7035ZM22.2978 54.1952C21.609 54.9385 20.7122 55.5743 19.5839 56.0907L20.4161 57.9093C21.7461 57.3007 22.8702 56.5199 23.7647 55.5548L22.2978 54.1952ZM19.5713 56.0966C18.5058 56.6022 17.1906 56.875 15.5938 56.875V58.875C17.4135 58.875 19.0359 58.5645 20.4287 57.9034L19.5713 56.0966ZM15.5938 56.875C14.8722 56.875 14.2124 56.7991 13.6106 56.6531L13.1394 58.5969C13.9126 58.7843 14.732 58.875 15.5938 58.875V56.875ZM13.6175 56.6549C12.9697 56.4929 12.3661 56.3217 11.806 56.1417L11.194 58.0458C11.8006 58.2408 12.447 58.4238 13.1325 58.5951L13.6175 56.6549ZM11.806 56.1417C11.2256 55.9551 10.6873 55.7792 10.1912 55.6138L9.55877 57.5112C10.0627 57.6791 10.6078 57.8574 11.194 58.0458L11.806 56.1417ZM10.2035 55.618C9.64093 55.4223 9.08107 55.3125 8.53125 55.3125V57.3125C8.81476 57.3125 9.15074 57.3693 9.54648 57.507L10.2035 55.618ZM8.53125 55.3125C8.04765 55.3125 7.5749 55.3929 7.14344 55.592L7.98156 57.408C8.09177 57.3571 8.26485 57.3125 8.53125 57.3125V55.3125ZM7.17788 55.5769C6.83369 55.7203 6.5186 55.9129 6.24189 56.1588L7.57061 57.6537C7.6689 57.5663 7.79131 57.488 7.94712 57.4231L7.17788 55.5769ZM6.24775 56.1537C6.03201 56.3424 5.83801 56.5493 5.66875 56.775L7.26875 57.975C7.34949 57.8673 7.44716 57.7617 7.56475 57.6588L6.24775 56.1537ZM5.59459 56.8894C5.49187 57.0743 5.40014 57.2373 5.31926 57.3789L7.05574 58.3711C7.14152 58.221 7.23729 58.0507 7.34291 57.8606L5.59459 56.8894ZM6.1875 56.875H5.09375V58.875H6.1875V56.875ZM6.09375 57.875V47.5H4.09375V57.875H6.09375ZM5.09375 48.5H6.1875V46.5H5.09375V48.5ZM5.21166 47.7185C5.5384 49.1779 5.98157 50.4548 6.55463 51.5321L8.32037 50.5929C7.85177 49.7119 7.4616 48.6137 7.16334 47.2815L5.21166 47.7185ZM6.55888 51.54C7.11241 52.5585 7.72548 53.4285 8.40601 54.1325L9.84399 52.7425C9.31619 52.1965 8.80426 51.4831 8.31612 50.585L6.55888 51.54ZM8.40601 54.1325C9.0588 54.8078 9.73305 55.3593 10.4318 55.7689L11.4432 54.0436C10.9336 53.7448 10.3995 53.3172 9.84399 52.7425L8.40601 54.1325ZM10.4669 55.7886C11.1373 56.1462 11.7785 56.4177 12.3866 56.588L12.9259 54.662C12.4923 54.5406 11.9877 54.333 11.4081 54.0239L10.4669 55.7886ZM12.3963 56.5906C12.9658 56.744 13.4774 56.8509 13.9208 56.9001L14.1417 54.9124C13.8351 54.8783 13.43 54.7977 12.9162 54.6594L12.3963 56.5906ZM13.9787 56.9049C14.3656 56.9252 14.6451 56.9375 14.7812 56.9375V54.9375C14.7091 54.9375 14.4886 54.9289 14.0838 54.9076L13.9787 56.9049ZM14.7812 56.9375C15.6156 56.9375 16.4308 56.8331 17.2246 56.623L16.7129 54.6895C16.09 54.8544 15.4469 54.9375 14.7812 54.9375V56.9375ZM17.2435 56.6178C18.0714 56.3812 18.8166 56.0312 19.465 55.5574L18.285 53.9426C17.8501 54.2604 17.3245 54.5146 16.694 54.6947L17.2435 56.6178ZM19.465 55.5574C20.1278 55.0731 20.6614 54.4611 21.0631 53.7331L19.3119 52.7669C19.0469 53.2472 18.7056 53.6353 18.285 53.9426L19.465 55.5574ZM21.0699 53.7206C21.4948 52.9238 21.6875 52.016 21.6875 51.0312H19.6875C19.6875 51.7548 19.5469 52.3262 19.3051 52.7794L21.0699 53.7206ZM21.6875 51.0312C21.6875 50.1588 21.4804 49.3305 21.0699 48.5607L19.3051 49.5018C19.5612 49.982 19.6875 50.4871 19.6875 51.0312H21.6875ZM21.0819 48.584C20.712 47.8442 20.1835 47.1443 19.5196 46.4804L18.1054 47.8946C18.6499 48.4391 19.038 48.9683 19.2931 49.4785L21.0819 48.584ZM19.5436 46.5052C18.9048 45.8208 18.1317 45.1625 17.2337 44.5273L16.0788 46.1602C16.8892 46.7334 17.5536 47.3042 18.0814 47.8698L19.5436 46.5052ZM17.2337 44.5273C16.3545 43.9055 15.3634 43.2664 14.2621 42.6098L13.2379 44.3277C14.3033 44.9628 15.2496 45.5737 16.0788 46.1602L17.2337 44.5273ZM14.2517 42.6037C13.2212 42.006 12.2009 41.3877 11.1909 40.7487L10.1216 42.4388C11.1533 43.0915 12.1955 43.7232 13.2483 44.3338L14.2517 42.6037ZM11.1988 40.7537C10.2476 40.1394 9.39062 39.4689 8.62576 38.7433L7.24924 40.1942C8.10938 41.0102 9.06495 41.7565 10.1137 42.4338L11.1988 40.7537ZM8.63536 38.7525C7.89504 38.0312 7.30389 37.2409 6.85533 36.3812L5.08217 37.3063C5.63361 38.3632 6.35496 39.323 7.23964 40.185L8.63536 38.7525ZM6.85936 36.389C6.44171 35.5711 6.21875 34.6062 6.21875 33.4688H4.21875C4.21875 34.873 4.49579 36.1581 5.07814 37.2985L6.85936 36.389ZM6.21875 33.4688C6.21875 32.543 6.37565 31.6606 6.68799 30.8154L4.81201 30.1221C4.41602 31.1936 4.21875 32.3111 4.21875 33.4688H6.21875ZM6.68386 30.8264C7.01195 29.9697 7.48136 29.2319 8.09228 28.603L6.65772 27.2095C5.85197 28.0389 5.23805 29.0095 4.81614 30.1111L6.68386 30.8264ZM8.09199 28.6033C8.7168 27.9607 9.49468 27.4403 10.4432 27.0497L9.68175 25.2003C8.50532 25.6847 7.49153 26.3518 6.65801 27.2092L8.09199 28.6033ZM10.437 27.0522C11.3789 26.6718 12.4976 26.4688 13.8125 26.4688V24.4688C12.2941 24.4688 10.9127 24.7032 9.68804 25.1978L10.437 27.0522ZM13.8125 26.4688C14.5898 26.4688 15.2532 26.537 15.811 26.6629L16.2515 24.7121C15.5176 24.5463 14.7018 24.4688 13.8125 24.4688V26.4688ZM15.811 26.6629C16.4224 26.801 16.9502 26.9556 17.3989 27.1238L18.1011 25.2512C17.5498 25.0444 16.9317 24.8657 16.2515 24.7121L15.811 26.6629ZM17.4338 27.1362C17.9262 27.3003 18.364 27.4531 18.748 27.5946L19.4395 25.7179C19.0318 25.5677 18.5738 25.408 18.0662 25.2388L17.4338 27.1362ZM18.748 27.5946C19.2339 27.7736 19.7265 27.875 20.2188 27.875V25.875C20.0027 25.875 19.7452 25.8306 19.4395 25.7179L18.748 27.5946ZM20.2188 27.875C20.8664 27.875 21.5232 27.7035 22.0196 27.2071L20.6054 25.7929C20.6018 25.7965 20.5295 25.875 20.2188 25.875V27.875ZM22.0196 27.2071C22.3632 26.8635 22.6581 26.4272 22.9171 25.9328L21.1454 25.0047C20.9461 25.3853 20.7618 25.6365 20.6054 25.7929L22.0196 27.2071ZM22.0312 26.4688H23.2188V24.4688H22.0312V26.4688ZM22.2188 25.4688V35.5625H24.2188V25.4688H22.2188Z" fill="black" mask="url(#path-1-outside-1_1944_373)"/>
<mask id="path-3-outside-2_1944_373" maskUnits="userSpaceOnUse" x="-1" y="42" width="27" height="29" fill="black">
<rect fill="white" x="-1" y="42" width="27" height="29"/>
<path d="M18.6367 56.4844C20.4727 56.875 21.8464 57.5 22.7578 58.3594C24.0208 59.5573 24.6523 61.0221 24.6523 62.7539C24.6523 64.069 24.2357 65.332 23.4023 66.543C22.569 67.7409 21.4232 68.6198 19.9648 69.1797C18.5195 69.7266 16.306 70 13.3242 70H0.824219V69.2773H1.82031C2.92708 69.2773 3.72135 68.9258 4.20312 68.2227C4.5026 67.7669 4.65234 66.7969 4.65234 65.3125V48.2031C4.65234 46.5625 4.46354 45.5273 4.08594 45.0977C3.57812 44.5247 2.82292 44.2383 1.82031 44.2383H0.824219V43.5156H12.2695C14.4049 43.5156 16.1172 43.6719 17.4062 43.9844C19.3594 44.4531 20.8503 45.2865 21.8789 46.4844C22.9076 47.6693 23.4219 49.0365 23.4219 50.5859C23.4219 51.9141 23.0182 53.1055 22.2109 54.1602C21.4036 55.2018 20.2122 55.9766 18.6367 56.4844ZM8.40234 55.4297C8.88411 55.5208 9.43099 55.5924 10.043 55.6445C10.668 55.6836 11.3516 55.7031 12.0938 55.7031C13.9948 55.7031 15.4206 55.5013 16.3711 55.0977C17.3346 54.681 18.0703 54.0495 18.5781 53.2031C19.0859 52.3568 19.3398 51.4323 19.3398 50.4297C19.3398 48.8802 18.7083 47.5586 17.4453 46.4648C16.1823 45.3711 14.3398 44.8242 11.918 44.8242C10.6159 44.8242 9.44401 44.9674 8.40234 45.2539V55.4297ZM8.40234 68.0859C9.91276 68.4375 11.4036 68.6133 12.875 68.6133C15.2318 68.6133 17.0286 68.0859 18.2656 67.0312C19.5026 65.9635 20.1211 64.6484 20.1211 63.0859C20.1211 62.0573 19.8411 61.0677 19.2812 60.1172C18.7214 59.1667 17.8099 58.418 16.5469 57.8711C15.2839 57.3242 13.7214 57.0508 11.8594 57.0508C11.0521 57.0508 10.362 57.0638 9.78906 57.0898C9.21615 57.1159 8.75391 57.1615 8.40234 57.2266V68.0859Z"/>
</mask>
<path d="M18.6367 56.4844C20.4727 56.875 21.8464 57.5 22.7578 58.3594C24.0208 59.5573 24.6523 61.0221 24.6523 62.7539C24.6523 64.069 24.2357 65.332 23.4023 66.543C22.569 67.7409 21.4232 68.6198 19.9648 69.1797C18.5195 69.7266 16.306 70 13.3242 70H0.824219V69.2773H1.82031C2.92708 69.2773 3.72135 68.9258 4.20312 68.2227C4.5026 67.7669 4.65234 66.7969 4.65234 65.3125V48.2031C4.65234 46.5625 4.46354 45.5273 4.08594 45.0977C3.57812 44.5247 2.82292 44.2383 1.82031 44.2383H0.824219V43.5156H12.2695C14.4049 43.5156 16.1172 43.6719 17.4062 43.9844C19.3594 44.4531 20.8503 45.2865 21.8789 46.4844C22.9076 47.6693 23.4219 49.0365 23.4219 50.5859C23.4219 51.9141 23.0182 53.1055 22.2109 54.1602C21.4036 55.2018 20.2122 55.9766 18.6367 56.4844ZM8.40234 55.4297C8.88411 55.5208 9.43099 55.5924 10.043 55.6445C10.668 55.6836 11.3516 55.7031 12.0938 55.7031C13.9948 55.7031 15.4206 55.5013 16.3711 55.0977C17.3346 54.681 18.0703 54.0495 18.5781 53.2031C19.0859 52.3568 19.3398 51.4323 19.3398 50.4297C19.3398 48.8802 18.7083 47.5586 17.4453 46.4648C16.1823 45.3711 14.3398 44.8242 11.918 44.8242C10.6159 44.8242 9.44401 44.9674 8.40234 45.2539V55.4297ZM8.40234 68.0859C9.91276 68.4375 11.4036 68.6133 12.875 68.6133C15.2318 68.6133 17.0286 68.0859 18.2656 67.0312C19.5026 65.9635 20.1211 64.6484 20.1211 63.0859C20.1211 62.0573 19.8411 61.0677 19.2812 60.1172C18.7214 59.1667 17.8099 58.418 16.5469 57.8711C15.2839 57.3242 13.7214 57.0508 11.8594 57.0508C11.0521 57.0508 10.362 57.0638 9.78906 57.0898C9.21615 57.1159 8.75391 57.1615 8.40234 57.2266V68.0859Z" fill="black"/>
<path d="M18.6367 56.4844L18.3299 55.5326L14.7624 56.6824L18.4286 57.4625L18.6367 56.4844ZM22.7578 58.3594L23.446 57.6338L23.4438 57.6318L22.7578 58.3594ZM23.4023 66.543L24.2233 67.114L24.2261 67.1099L23.4023 66.543ZM19.9648 69.1797L20.3187 70.115L20.3233 70.1132L19.9648 69.1797ZM0.824219 70H-0.175781V71H0.824219V70ZM0.824219 69.2773V68.2773H-0.175781V69.2773H0.824219ZM4.20312 68.2227L5.02806 68.7879L5.03352 68.7799L5.03883 68.7718L4.20312 68.2227ZM4.08594 45.0977L4.83711 44.4375L4.83428 44.4343L4.08594 45.0977ZM0.824219 44.2383H-0.175781V45.2383H0.824219V44.2383ZM0.824219 43.5156V42.5156H-0.175781V43.5156H0.824219ZM17.4062 43.9844L17.1706 44.9562L17.1729 44.9568L17.4062 43.9844ZM21.8789 46.4844L21.1202 47.1359L21.1238 47.1399L21.8789 46.4844ZM22.2109 54.1602L23.0014 54.7727L23.005 54.768L22.2109 54.1602ZM8.40234 55.4297H7.40234V56.2582L8.21645 56.4123L8.40234 55.4297ZM10.043 55.6445L9.95817 56.6409L9.96937 56.6419L9.98059 56.6426L10.043 55.6445ZM16.3711 55.0977L16.762 56.0181L16.768 56.0155L16.3711 55.0977ZM8.40234 45.2539L8.13719 44.2897L7.40234 44.4918V45.2539H8.40234ZM8.40234 68.0859H7.40234V68.8799L8.17565 69.0599L8.40234 68.0859ZM18.2656 67.0312L18.9144 67.7922L18.919 67.7883L18.2656 67.0312ZM9.78906 57.0898L9.74365 56.0909L9.78906 57.0898ZM8.40234 57.2266L8.22025 56.2433L7.40234 56.3947V57.2266H8.40234ZM18.4286 57.4625C20.1684 57.8327 21.3443 58.401 22.0718 59.087L23.4438 57.6318C22.3484 56.599 20.7769 55.9173 18.8448 55.5063L18.4286 57.4625ZM22.0697 59.0849C23.1348 60.0951 23.6523 61.2981 23.6523 62.7539H25.6523C25.6523 60.7461 24.9069 59.0194 23.446 57.6338L22.0697 59.0849ZM23.6523 62.7539C23.6523 63.8431 23.3112 64.9115 22.5786 65.9761L24.2261 67.1099C25.1602 65.7526 25.6523 64.2949 25.6523 62.7539H23.6523ZM22.5814 65.9719C21.8707 66.9936 20.8916 67.7527 19.6064 68.2461L20.3233 70.1132C21.9547 69.4869 23.2673 68.4881 24.2232 67.114L22.5814 65.9719ZM19.611 68.2444C18.3405 68.7251 16.276 69 13.3242 69V71C16.3359 71 18.6985 70.728 20.3187 70.115L19.611 68.2444ZM13.3242 69H0.824219V71H13.3242V69ZM1.82422 70V69.2773H-0.175781V70H1.82422ZM0.824219 70.2773H1.82031V68.2773H0.824219V70.2773ZM1.82031 70.2773C3.14734 70.2773 4.30544 69.8425 5.02806 68.7879L3.37819 67.6574C3.13727 68.009 2.70682 68.2773 1.82031 68.2773V70.2773ZM5.03883 68.7718C5.30709 68.3636 5.44635 67.837 5.52833 67.3059C5.61386 66.7518 5.65234 66.0827 5.65234 65.3125H3.65234C3.65234 66.0267 3.61596 66.5848 3.55174 67.0008C3.48399 67.4397 3.39864 67.626 3.36742 67.6735L5.03883 68.7718ZM5.65234 65.3125V48.2031H3.65234V65.3125H5.65234ZM5.65234 48.2031C5.65234 47.352 5.60394 46.6168 5.49451 46.0169C5.39084 45.4484 5.20914 44.8609 4.8371 44.4375L3.33477 45.7578C3.32851 45.7506 3.35795 45.7827 3.40104 45.8941C3.443 46.0026 3.48752 46.1594 3.52697 46.3757C3.60635 46.8109 3.65234 47.4136 3.65234 48.2031H5.65234ZM4.83428 44.4343C4.0822 43.5858 3.01513 43.2383 1.82031 43.2383V45.2383C2.6307 45.2383 3.07405 45.4636 3.33759 45.761L4.83428 44.4343ZM1.82031 43.2383H0.824219V45.2383H1.82031V43.2383ZM1.82422 44.2383V43.5156H-0.175781V44.2383H1.82422ZM0.824219 44.5156H12.2695V42.5156H0.824219V44.5156ZM12.2695 44.5156C14.3674 44.5156 15.9909 44.6702 17.1706 44.9562L17.6419 43.0125C16.2435 42.6735 14.4425 42.5156 12.2695 42.5156V44.5156ZM17.1729 44.9568C18.9774 45.3899 20.2618 46.1362 21.1202 47.1358L22.6376 45.8329C21.4387 44.4367 19.7413 43.5164 17.6396 43.012L17.1729 44.9568ZM21.1238 47.1399C21.9967 48.1455 22.4219 49.2807 22.4219 50.5859H24.4219C24.4219 48.7922 23.8184 47.1931 22.634 45.8288L21.1238 47.1399ZM22.4219 50.5859C22.4219 51.6943 22.0906 52.6721 21.4169 53.5523L23.005 54.768C23.9459 53.5388 24.4219 52.1338 24.4219 50.5859H22.4219ZM21.4205 53.5476C20.7649 54.3936 19.763 55.0707 18.3299 55.5326L18.9435 57.4362C20.6615 56.8824 22.0424 56.0101 23.0014 54.7727L21.4205 53.5476ZM8.21645 56.4123C8.73876 56.5111 9.32033 56.5866 9.95817 56.6409L10.1278 54.6481C9.54165 54.5983 9.02947 54.5306 8.58824 54.4471L8.21645 56.4123ZM9.98059 56.6426C10.6297 56.6832 11.3344 56.7031 12.0938 56.7031V54.7031C11.3687 54.7031 10.7062 54.684 10.1053 54.6465L9.98059 56.6426ZM12.0938 56.7031C14.0352 56.7031 15.6236 56.5015 16.762 56.0181L15.9802 54.1772C15.2175 54.5011 13.9544 54.7031 12.0938 54.7031V56.7031ZM16.768 56.0155C17.9105 55.5214 18.8132 54.755 19.4356 53.7176L17.7206 52.6886C17.3274 53.344 16.7587 53.8405 15.9742 54.1798L16.768 56.0155ZM19.4356 53.7176C20.0382 52.7133 20.3398 51.6105 20.3398 50.4297H18.3398C18.3398 51.2541 18.1337 52.0003 17.7206 52.6886L19.4356 53.7176ZM20.3398 50.4297C20.3398 48.5653 19.5629 46.9758 18.0999 45.7089L16.7907 47.2208C17.8538 48.1414 18.3398 49.1951 18.3398 50.4297H20.3398ZM18.0999 45.7089C16.5885 44.4 14.4743 43.8242 11.918 43.8242V45.8242C14.2054 45.8242 15.7761 46.3422 16.7907 47.2208L18.0999 45.7089ZM11.918 43.8242C10.544 43.8242 9.28078 43.9752 8.13719 44.2897L8.6675 46.2181C9.60724 45.9597 10.6878 45.8242 11.918 45.8242V43.8242ZM7.40234 45.2539V55.4297H9.40234V45.2539H7.40234ZM8.17565 69.0599C9.75639 69.4278 11.3233 69.6133 12.875 69.6133V67.6133C11.484 67.6133 10.0691 67.4472 8.62904 67.112L8.17565 69.0599ZM12.875 69.6133C15.3649 69.6133 17.4302 69.0577 18.9144 67.7922L17.6168 66.2703C16.6271 67.1142 15.0987 67.6133 12.875 67.6133V69.6133ZM18.919 67.7883C20.3646 66.5405 21.1211 64.954 21.1211 63.0859H19.1211C19.1211 64.3429 18.6406 65.3866 17.6122 66.2742L18.919 67.7883ZM21.1211 63.0859C21.1211 61.8659 20.7866 60.7024 20.1429 59.6097L18.4196 60.6247C18.8957 61.433 19.1211 62.2487 19.1211 63.0859H21.1211ZM20.1429 59.6097C19.4514 58.4358 18.3528 57.5633 16.9442 56.9534L16.1495 58.7888C17.267 59.2726 17.9913 59.8976 18.4196 60.6247L20.1429 59.6097ZM16.9442 56.9534C15.5199 56.3367 13.8126 56.0508 11.8594 56.0508V58.0508C13.6301 58.0508 15.0478 58.3117 16.1495 58.7888L16.9442 56.9534ZM11.8594 56.0508C11.0425 56.0508 10.3364 56.0639 9.74365 56.0909L9.83447 58.0888C10.3876 58.0637 11.0617 58.0508 11.8594 58.0508V56.0508ZM9.74365 56.0909C9.1487 56.1179 8.63554 56.1664 8.22025 56.2433L8.58443 58.2098C8.87227 58.1565 9.28359 58.1139 9.83447 58.0888L9.74365 56.0909ZM7.40234 57.2266V68.0859H9.40234V57.2266H7.40234Z" fill="black" mask="url(#path-3-outside-2_1944_373)"/>
</svg>
